<svg width="80" height="42" viewBox="0 0 80 42" fill="none" xmlns="http://www.w3.org/2000/svg">
<path d="M6.036 36.992V38H1.032V29.684H2.196V36.992H6.036ZM13.2547 29.684H14.4187V38H13.2547V29.684ZM22.4773 38V29.684H27.4933V30.68H23.6413V33.188H27.0613V34.172H23.6413V38H22.4773ZM40.6427 29.684V30.692H38.0267V38H36.8627V30.692H34.2467V29.684H40.6427ZM47.8718 29.684H49.0358V38H47.8718V29.684ZM62.7945 38C62.6185 37.704 62.4145 37.372 62.1825 37.004C61.9585 36.636 61.7145 36.256 61.4505 35.864C61.1865 35.464 60.9105 35.06 60.6225 34.652C60.3425 34.244 60.0625 33.852 59.7825 33.476C59.5025 33.092 59.2305 32.732 58.9665 32.396C58.7025 32.06 58.4585 31.764 58.2345 31.508V38H57.0945V29.684H58.0185C58.3945 30.084 58.7945 30.552 59.2185 31.088C59.6505 31.616 60.0745 32.164 60.4905 32.732C60.9145 33.292 61.3105 33.844 61.6785 34.388C62.0545 34.932 62.3705 35.416 62.6265 35.84V29.684H63.7665V38H62.7945ZM76.901 33.908H78.065V37.796C77.969 37.828 77.829 37.864 77.645 37.904C77.469 37.944 77.261 37.984 77.021 38.024C76.789 38.064 76.533 38.096 76.253 38.12C75.973 38.152 75.689 38.168 75.401 38.168C74.817 38.168 74.285 38.072 73.805 37.88C73.325 37.688 72.913 37.408 72.569 37.04C72.225 36.672 71.957 36.22 71.765 35.684C71.581 35.148 71.489 34.532 71.489 33.836C71.489 33.14 71.593 32.524 71.801 31.988C72.017 31.444 72.305 30.988 72.665 30.62C73.025 30.252 73.445 29.972 73.925 29.78C74.413 29.588 74.933 29.492 75.485 29.492C75.861 29.492 76.193 29.516 76.481 29.564C76.777 29.612 77.029 29.668 77.237 29.732C77.445 29.796 77.613 29.86 77.741 29.924C77.877 29.988 77.969 30.036 78.017 30.068L77.645 31.04C77.413 30.888 77.105 30.764 76.721 30.668C76.337 30.564 75.945 30.512 75.545 30.512C75.121 30.512 74.733 30.588 74.381 30.74C74.037 30.892 73.741 31.112 73.493 31.4C73.253 31.688 73.065 32.04 72.929 32.456C72.793 32.864 72.725 33.324 72.725 33.836C72.725 34.332 72.781 34.784 72.893 35.192C73.013 35.6 73.189 35.952 73.421 36.248C73.661 36.536 73.953 36.76 74.297 36.92C74.649 37.08 75.061 37.16 75.533 37.16C75.869 37.16 76.153 37.144 76.385 37.112C76.625 37.072 76.797 37.036 76.901 37.004V33.908Z" fill="white"/>
<path d="M6.22 21.18C5.46 21.18 4.7 21.1533 3.94 21.1C3.19333 21.06 2.41333 20.9533 1.6 20.78V7.34C2.24 7.22 2.94 7.13333 3.7 7.08C4.46 7.01333 5.16667 6.98 5.82 6.98C6.7 6.98 7.50667 7.04667 8.24 7.18C8.98667 7.3 9.62667 7.51333 10.16 7.82C10.6933 8.12667 11.1067 8.53333 11.4 9.04C11.7067 9.53333 11.86 10.1467 11.86 10.88C11.86 11.9867 11.3267 12.86 10.26 13.5C11.14 13.8333 11.74 14.2867 12.06 14.86C12.38 15.4333 12.54 16.08 12.54 16.8C12.54 18.2533 12.0067 19.3467 10.94 20.08C9.88667 20.8133 8.31333 21.18 6.22 21.18ZM4.64 14.96V18.54C4.86667 18.5667 5.11333 18.5867 5.38 18.6C5.64667 18.6133 5.94 18.62 6.26 18.62C7.19333 18.62 7.94667 18.4867 8.52 18.22C9.09333 17.9533 9.38 17.46 9.38 16.74C9.38 16.1 9.14 15.6467 8.66 15.38C8.18 15.1 7.49333 14.96 6.6 14.96H4.64ZM4.64 12.58H6.16C7.12 12.58 7.80667 12.46 8.22 12.22C8.63333 11.9667 8.84 11.5667 8.84 11.02C8.84 10.46 8.62667 10.0667 8.2 9.84C7.77333 9.61333 7.14667 9.5 6.32 9.5C6.05333 9.5 5.76667 9.50667 5.46 9.52C5.15333 9.52 4.88 9.53333 4.64 9.56V12.58ZM15.0375 21V7.14H24.3975V9.76H18.1575V12.48H23.6975V15.04H18.1575V18.38H24.8575V21H15.0375ZM36.4464 21C36.2997 20.52 36.1331 20.0267 35.9464 19.52C35.7731 19.0133 35.5997 18.5067 35.4264 18H30.0264C29.8531 18.5067 29.6731 19.0133 29.4864 19.52C29.3131 20.0267 29.1531 20.52 29.0064 21H25.7664C26.2864 19.5067 26.7797 18.1267 27.2464 16.86C27.7131 15.5933 28.1664 14.4 28.6064 13.28C29.0597 12.16 29.4997 11.1 29.9264 10.1C30.3664 9.08667 30.8197 8.1 31.2864 7.14H34.2664C34.7197 8.1 35.1664 9.08667 35.6064 10.1C36.0464 11.1 36.4864 12.16 36.9264 13.28C37.3797 14.4 37.8397 15.5933 38.3064 16.86C38.7731 18.1267 39.2664 19.5067 39.7864 21H36.4464ZM32.7064 10.28C32.6397 10.48 32.5397 10.7533 32.4064 11.1C32.2731 11.4467 32.1197 11.8467 31.9464 12.3C31.7731 12.7533 31.5797 13.2533 31.3664 13.8C31.1664 14.3467 30.9597 14.92 30.7464 15.52H34.6864C34.4731 14.92 34.2664 14.3467 34.0664 13.8C33.8664 13.2533 33.6731 12.7533 33.4864 12.3C33.3131 11.8467 33.1597 11.4467 33.0264 11.1C32.8931 10.7533 32.7864 10.48 32.7064 10.28ZM46.6098 21.28C45.6365 21.28 44.7965 21.1467 44.0898 20.88C43.3832 20.6 42.7965 20.22 42.3298 19.74C41.8765 19.2467 41.5365 18.6667 41.3098 18C41.0965 17.32 40.9898 16.5733 40.9898 15.76V7.14H44.1098V15.5C44.1098 16.06 44.1698 16.54 44.2898 16.94C44.4232 17.3267 44.5965 17.6467 44.8098 17.9C45.0365 18.14 45.3032 18.3133 45.6098 18.42C45.9298 18.5267 46.2765 18.58 46.6498 18.58C47.4098 18.58 48.0232 18.3467 48.4898 17.88C48.9698 17.4133 49.2098 16.62 49.2098 15.5V7.14H52.3298V15.76C52.3298 16.5733 52.2165 17.32 51.9898 18C51.7632 18.68 51.4165 19.2667 50.9498 19.76C50.4832 20.24 49.8898 20.6133 49.1698 20.88C48.4498 21.1467 47.5965 21.28 46.6098 21.28ZM65.6105 7.14V9.8H61.4305V21H58.3105V9.8H54.1305V7.14H65.6105ZM73.3792 12.84C73.9392 11.8933 74.4726 10.9467 74.9792 10C75.4859 9.05333 75.9526 8.1 76.3792 7.14H79.8192C79.0592 8.63333 78.2726 10.08 77.4592 11.48C76.6459 12.88 75.7859 14.2867 74.8792 15.7V21H71.7592V15.74C70.8526 14.3267 69.9859 12.9133 69.1592 11.5C68.3459 10.0867 67.5592 8.63333 66.7992 7.14H70.4192C70.8459 8.1 71.3059 9.05333 71.7992 10C72.2926 10.9467 72.8192 11.8933 73.3792 12.84Z" fill="white"/>
</svg>
