<svg width="191" height="27" viewBox="0 0 191 27" fill="none" xmlns="http://www.w3.org/2000/svg">
<path d="M6 7H4V5H6V7ZM16 7H18V5H16V7ZM22 13V19H20V15H18V19H16V17H6V19H4V15H2V19H0V13H2V11H4V9H6V7H8V9H14V7H16V9H18V11H20V13H22ZM14 11V13H16V11H14ZM6 13H8V11H6V13ZM10 19H6V21H10V19ZM16 19H12V21H16V19Z" fill="white"/>
<path d="M42.122 17.15H33.938L32.244 21H29.978L36.952 5.6H39.13L46.126 21H43.816L42.122 17.15ZM41.352 15.39L38.03 7.844L34.708 15.39H41.352ZM50.7078 7.514H45.4278V5.6H58.1658V7.514H52.8858V21H50.7078V7.514ZM74.84 21L74.818 9.78L69.252 19.13H68.24L62.674 9.846V21H60.562V5.6H62.366L68.79 16.424L75.126 5.6H76.93L76.952 21H74.84ZM88.5257 21.176C86.971 21.176 85.5703 20.8387 84.3237 20.164C83.077 19.4747 82.0943 18.5287 81.3757 17.326C80.6717 16.1233 80.3197 14.7813 80.3197 13.3C80.3197 11.8187 80.6717 10.4767 81.3757 9.274C82.0943 8.07133 83.077 7.13267 84.3237 6.458C85.5703 5.76867 86.971 5.424 88.5257 5.424C90.0657 5.424 91.459 5.76867 92.7057 6.458C93.9523 7.13267 94.9277 8.07133 95.6317 9.274C96.3357 10.462 96.6877 11.804 96.6877 13.3C96.6877 14.796 96.3357 16.1453 95.6317 17.348C94.9277 18.536 93.9523 19.4747 92.7057 20.164C91.459 20.8387 90.0657 21.176 88.5257 21.176ZM88.5257 19.218C89.655 19.218 90.667 18.9613 91.5617 18.448C92.471 17.9347 93.1823 17.2307 93.6957 16.336C94.2237 15.4267 94.4877 14.4147 94.4877 13.3C94.4877 12.1853 94.2237 11.1807 93.6957 10.286C93.1823 9.37667 92.471 8.66533 91.5617 8.152C90.667 7.63867 89.655 7.382 88.5257 7.382C87.3963 7.382 86.3697 7.63867 85.4457 8.152C84.5363 8.66533 83.8177 9.37667 83.2897 10.286C82.7763 11.1807 82.5197 12.1853 82.5197 13.3C82.5197 14.4147 82.7763 15.4267 83.2897 16.336C83.8177 17.2307 84.5363 17.9347 85.4457 18.448C86.3697 18.9613 87.3963 19.218 88.5257 19.218ZM104.538 21.176C103.38 21.176 102.258 21 101.172 20.648C100.102 20.2813 99.2582 19.812 98.6422 19.24L99.4562 17.524C100.043 18.052 100.791 18.4847 101.7 18.822C102.624 19.1447 103.57 19.306 104.538 19.306C105.814 19.306 106.768 19.0933 107.398 18.668C108.029 18.228 108.344 17.6487 108.344 16.93C108.344 16.402 108.168 15.9767 107.816 15.654C107.479 15.3167 107.054 15.06 106.54 14.884C106.042 14.708 105.33 14.51 104.406 14.29C103.248 14.0113 102.309 13.7327 101.59 13.454C100.886 13.1753 100.278 12.75 99.7642 12.178C99.2656 11.5913 99.0162 10.8067 99.0162 9.824C99.0162 9.00267 99.2289 8.262 99.6542 7.602C100.094 6.942 100.754 6.414 101.634 6.018C102.514 5.622 103.607 5.424 104.912 5.424C105.822 5.424 106.716 5.54133 107.596 5.776C108.476 6.01067 109.232 6.348 109.862 6.788L109.136 8.548C108.491 8.13733 107.802 7.82933 107.068 7.624C106.335 7.404 105.616 7.294 104.912 7.294C103.666 7.294 102.727 7.52133 102.096 7.976C101.48 8.43067 101.172 9.01733 101.172 9.736C101.172 10.264 101.348 10.6967 101.7 11.034C102.052 11.3567 102.485 11.6133 102.998 11.804C103.526 11.98 104.238 12.1707 105.132 12.376C106.291 12.6547 107.222 12.9333 107.926 13.212C108.63 13.4907 109.232 13.916 109.73 14.488C110.244 15.06 110.5 15.83 110.5 16.798C110.5 17.6047 110.28 18.3453 109.84 19.02C109.4 19.68 108.733 20.208 107.838 20.604C106.944 20.9853 105.844 21.176 104.538 21.176ZM119.72 5.6C121.715 5.6 123.284 6.07667 124.428 7.03C125.572 7.98333 126.144 9.296 126.144 10.968C126.144 12.64 125.572 13.9527 124.428 14.906C123.284 15.8593 121.715 16.336 119.72 16.336H115.914V21H113.714V5.6H119.72ZM119.654 14.422C121.048 14.422 122.111 14.1287 122.844 13.542C123.578 12.9407 123.944 12.0827 123.944 10.968C123.944 9.85333 123.578 9.00267 122.844 8.416C122.111 7.81467 121.048 7.514 119.654 7.514H115.914V14.422H119.654ZM142.62 5.6V21H140.42V14.136H131.576V21H129.376V5.6H131.576V12.222H140.42V5.6H142.62ZM158.406 19.086V21H147.23V5.6H158.098V7.514H149.43V12.244H157.152V14.114H149.43V19.086H158.406ZM172.264 21L168.942 16.27C168.532 16.2993 168.209 16.314 167.974 16.314H164.168V21H161.968V5.6H167.974C169.969 5.6 171.538 6.07667 172.682 7.03C173.826 7.98333 174.398 9.296 174.398 10.968C174.398 12.156 174.105 13.168 173.518 14.004C172.932 14.84 172.096 15.4487 171.01 15.83L174.662 21H172.264ZM167.908 14.444C169.302 14.444 170.365 14.1433 171.098 13.542C171.832 12.9407 172.198 12.0827 172.198 10.968C172.198 9.85333 171.832 9.00267 171.098 8.416C170.365 7.81467 169.302 7.514 167.908 7.514H164.168V14.444H167.908ZM189.129 19.086V21H177.953V5.6H188.821V7.514H180.153V12.244H187.875V14.114H180.153V19.086H189.129Z" fill="white"/>
</svg>
