<svg width="186" height="41" viewBox="0 0 186 41" fill="none" xmlns="http://www.w3.org/2000/svg">
<path d="M7.854 12.9H3.304L2.436 15H0.112L4.48 5.2H6.72L11.102 15H8.722L7.854 12.9ZM7.14 11.178L5.586 7.426L4.032 11.178H7.14ZM23.7696 5.2V15H21.5016V10.982H17.0496V15H14.7816V5.2H17.0496V9.064H21.5016V5.2H23.7696ZM38.6446 13.152V17.03H36.5446V15H29.6286V17.03H27.5286L27.5426 13.152H27.9346C28.5226 13.1333 28.9379 12.704 29.1806 11.864C29.4233 11.024 29.5726 9.82467 29.6286 8.266L29.7406 5.2H37.2726V13.152H38.6446ZM31.6306 8.476C31.5839 9.64267 31.4859 10.6227 31.3366 11.416C31.1873 12.2 30.9586 12.7787 30.6506 13.152H35.0326V7.048H31.6726L31.6306 8.476ZM46.7934 5.2C47.6614 5.2 48.4127 5.34467 49.0474 5.634C49.6914 5.92333 50.186 6.334 50.5314 6.866C50.8767 7.398 51.0494 8.028 51.0494 8.756C51.0494 9.47467 50.8767 10.1047 50.5314 10.646C50.186 11.178 49.6914 11.5887 49.0474 11.878C48.4127 12.158 47.6614 12.298 46.7934 12.298H44.8194V15H42.5514V5.2H46.7934ZM46.6674 10.45C47.3487 10.45 47.8667 10.3053 48.2214 10.016C48.576 9.71733 48.7534 9.29733 48.7534 8.756C48.7534 8.20533 48.576 7.78533 48.2214 7.496C47.8667 7.19733 47.3487 7.048 46.6674 7.048H44.8194V10.45H46.6674ZM62.5135 13.18V15H54.9255V5.2H62.3315V7.02H57.1795V9.148H61.7295V10.912H57.1795V13.18H62.5135ZM66.7254 5.2H68.9794V11.584L73.6554 5.2H75.7834V15H73.5434V8.63L68.8674 15H66.7254V5.2ZM71.2474 4.57C69.4554 4.57 68.5501 3.856 68.5314 2.428H70.0854C70.1041 3.10933 70.4914 3.45 71.2474 3.45C71.6208 3.45 71.9054 3.366 72.1014 3.198C72.2974 3.02067 72.4001 2.764 72.4094 2.428H73.9634C73.9541 3.128 73.7254 3.66 73.2774 4.024C72.8294 4.388 72.1528 4.57 71.2474 4.57ZM93.8503 7.048H89.1883L89.2023 15H86.9483V5.2H93.8643L93.8503 7.048ZM102.363 12.9H97.8128L96.9448 15H94.6208L98.9888 5.2H101.229L105.611 15H103.231L102.363 12.9ZM101.649 11.178L100.095 7.426L98.5408 11.178H101.649ZM116.08 9.89C116.678 10.0673 117.135 10.3567 117.452 10.758C117.77 11.1593 117.928 11.654 117.928 12.242C117.928 13.11 117.597 13.7867 116.934 14.272C116.281 14.7573 115.343 15 114.12 15H109.29V5.2H113.854C114.993 5.2 115.88 5.41933 116.514 5.858C117.149 6.29667 117.466 6.922 117.466 7.734C117.466 8.21933 117.345 8.64867 117.102 9.022C116.86 9.386 116.519 9.67533 116.08 9.89ZM111.544 9.26H113.658C114.153 9.26 114.526 9.162 114.778 8.966C115.03 8.76067 115.156 8.462 115.156 8.07C115.156 7.68733 115.026 7.39333 114.764 7.188C114.512 6.98267 114.144 6.88 113.658 6.88H111.544V9.26ZM114.036 13.32C115.1 13.32 115.632 12.9 115.632 12.06C115.632 11.248 115.1 10.842 114.036 10.842H111.544V13.32H114.036ZM126.344 5.2C127.212 5.2 127.963 5.34467 128.598 5.634C129.242 5.92333 129.737 6.334 130.082 6.866C130.427 7.398 130.6 8.028 130.6 8.756C130.6 9.47467 130.427 10.1047 130.082 10.646C129.737 11.178 129.242 11.5887 128.598 11.878C127.963 12.158 127.212 12.298 126.344 12.298H124.37V15H122.102V5.2H126.344ZM126.218 10.45C126.899 10.45 127.417 10.3053 127.772 10.016C128.127 9.71733 128.304 9.29733 128.304 8.756C128.304 8.20533 128.127 7.78533 127.772 7.496C127.417 7.19733 126.899 7.048 126.218 7.048H124.37V10.45H126.218ZM134.476 5.2H136.73V11.584L141.406 5.2H143.534V15H141.294V8.63L136.618 15H134.476V5.2ZM157.022 5.2V15H154.782V7.048H151.422L151.352 9.092C151.305 10.4827 151.193 11.612 151.016 12.48C150.838 13.3387 150.54 14.0013 150.12 14.468C149.709 14.9253 149.13 15.154 148.384 15.154C148.076 15.154 147.702 15.1027 147.264 15L147.404 13.082C147.525 13.1193 147.66 13.138 147.81 13.138C148.351 13.138 148.729 12.8207 148.944 12.186C149.158 11.542 149.294 10.5387 149.35 9.176L149.49 5.2H157.022ZM166.525 15.168C165.508 15.168 164.589 14.9487 163.767 14.51C162.955 14.0713 162.316 13.4693 161.849 12.704C161.392 11.9293 161.163 11.0613 161.163 10.1C161.163 9.13867 161.392 8.27533 161.849 7.51C162.316 6.73533 162.955 6.12867 163.767 5.69C164.589 5.25133 165.508 5.032 166.525 5.032C167.543 5.032 168.457 5.25133 169.269 5.69C170.081 6.12867 170.721 6.73533 171.187 7.51C171.654 8.27533 171.887 9.13867 171.887 10.1C171.887 11.0613 171.654 11.9293 171.187 12.704C170.721 13.4693 170.081 14.0713 169.269 14.51C168.457 14.9487 167.543 15.168 166.525 15.168ZM166.525 13.236C167.104 13.236 167.627 13.1053 168.093 12.844C168.56 12.5733 168.924 12.2 169.185 11.724C169.456 11.248 169.591 10.7067 169.591 10.1C169.591 9.49333 169.456 8.952 169.185 8.476C168.924 8 168.56 7.63133 168.093 7.37C167.627 7.09933 167.104 6.964 166.525 6.964C165.947 6.964 165.424 7.09933 164.957 7.37C164.491 7.63133 164.122 8 163.851 8.476C163.59 8.952 163.459 9.49333 163.459 10.1C163.459 10.7067 163.59 11.248 163.851 11.724C164.122 12.2 164.491 12.5733 164.957 12.844C165.424 13.1053 165.947 13.236 166.525 13.236ZM182.805 9.89C183.402 10.0673 183.859 10.3567 184.177 10.758C184.494 11.1593 184.653 11.654 184.653 12.242C184.653 13.11 184.321 13.7867 183.659 14.272C183.005 14.7573 182.067 15 180.845 15H176.015V5.2H180.579C181.717 5.2 182.604 5.41933 183.239 5.858C183.873 6.29667 184.191 6.922 184.191 7.734C184.191 8.21933 184.069 8.64867 183.827 9.022C183.584 9.386 183.243 9.67533 182.805 9.89ZM178.269 9.26H180.383C180.877 9.26 181.251 9.162 181.503 8.966C181.755 8.76067 181.881 8.462 181.881 8.07C181.881 7.68733 181.75 7.39333 181.489 7.188C181.237 6.98267 180.868 6.88 180.383 6.88H178.269V9.26ZM180.761 13.32C181.825 13.32 182.357 12.9 182.357 12.06C182.357 11.248 181.825 10.842 180.761 10.842H178.269V13.32H180.761Z" fill="white"/>
<path d="M6.929 30.307C7.56167 30.437 8.04267 30.6927 8.372 31.074C8.70133 31.4467 8.866 31.9363 8.866 32.543C8.866 33.3317 8.58433 33.9383 8.021 34.363C7.46633 34.7877 6.64733 35 5.564 35H1.534V25.9H5.317C6.28767 25.9 7.046 26.0993 7.592 26.498C8.138 26.8967 8.411 27.473 8.411 28.227C8.411 28.7383 8.281 29.1717 8.021 29.527C7.761 29.8737 7.397 30.1337 6.929 30.307ZM2.483 30.021H5.265C5.967 30.021 6.50433 29.878 6.877 29.592C7.25833 29.306 7.449 28.89 7.449 28.344C7.449 27.798 7.25833 27.382 6.877 27.096C6.50433 26.81 5.967 26.667 5.265 26.667H2.483V30.021ZM5.564 34.233C7.13267 34.233 7.917 33.648 7.917 32.478C7.917 31.334 7.13267 30.762 5.564 30.762H2.483V34.233H5.564ZM17.0303 31.867H11.3103C11.3623 32.5777 11.6353 33.154 12.1293 33.596C12.6233 34.0293 13.2473 34.246 14.0013 34.246C14.426 34.246 14.816 34.1723 15.1713 34.025C15.5266 33.869 15.8343 33.6437 16.0943 33.349L16.6143 33.947C16.311 34.311 15.9296 34.5883 15.4703 34.779C15.0196 34.9697 14.5213 35.065 13.9753 35.065C13.2733 35.065 12.6493 34.9177 12.1033 34.623C11.566 34.3197 11.1456 33.9037 10.8423 33.375C10.539 32.8463 10.3873 32.2483 10.3873 31.581C10.3873 30.9137 10.5303 30.3157 10.8163 29.787C11.111 29.2583 11.5096 28.8467 12.0123 28.552C12.5236 28.2573 13.0956 28.11 13.7283 28.11C14.361 28.11 14.9286 28.2573 15.4313 28.552C15.934 28.8467 16.3283 29.2583 16.6143 29.787C16.9003 30.307 17.0433 30.905 17.0433 31.581L17.0303 31.867ZM13.7283 28.903C13.0696 28.903 12.515 29.1153 12.0643 29.54C11.6223 29.956 11.371 30.502 11.3103 31.178H16.1593C16.0986 30.502 15.843 29.956 15.3923 29.54C14.9503 29.1153 14.3956 28.903 13.7283 28.903ZM22.6094 28.11C23.2508 28.11 23.8314 28.2573 24.3514 28.552C24.8714 28.838 25.2788 29.2453 25.5734 29.774C25.8681 30.3027 26.0154 30.905 26.0154 31.581C26.0154 32.2657 25.8681 32.8723 25.5734 33.401C25.2788 33.9297 24.8714 34.3413 24.3514 34.636C23.8401 34.922 23.2594 35.065 22.6094 35.065C22.0548 35.065 21.5521 34.9523 21.1014 34.727C20.6594 34.493 20.2954 34.155 20.0094 33.713V37.522H19.0864V28.162H19.9704V29.514C20.2478 29.0633 20.6118 28.7167 21.0624 28.474C21.5218 28.2313 22.0374 28.11 22.6094 28.11ZM22.5444 34.246C23.0211 34.246 23.4544 34.1377 23.8444 33.921C24.2344 33.6957 24.5378 33.3793 24.7544 32.972C24.9798 32.5647 25.0924 32.101 25.0924 31.581C25.0924 31.061 24.9798 30.6017 24.7544 30.203C24.5378 29.7957 24.2344 29.4793 23.8444 29.254C23.4544 29.0287 23.0211 28.916 22.5444 28.916C22.0591 28.916 21.6214 29.0287 21.2314 29.254C20.8501 29.4793 20.5468 29.7957 20.3214 30.203C20.1048 30.6017 19.9964 31.061 19.9964 31.581C19.9964 32.101 20.1048 32.5647 20.3214 32.972C20.5468 33.3793 20.8501 33.6957 21.2314 33.921C21.6214 34.1377 22.0591 34.246 22.5444 34.246ZM30.8585 35.065C30.1825 35.065 29.5759 34.9177 29.0385 34.623C28.5099 34.3283 28.0939 33.9167 27.7905 33.388C27.4872 32.8507 27.3355 32.2483 27.3355 31.581C27.3355 30.9137 27.4872 30.3157 27.7905 29.787C28.0939 29.2583 28.5099 28.8467 29.0385 28.552C29.5759 28.2573 30.1825 28.11 30.8585 28.11C31.4479 28.11 31.9722 28.227 32.4315 28.461C32.8995 28.6863 33.2679 29.02 33.5365 29.462L32.8475 29.93C32.6222 29.592 32.3362 29.3407 31.9895 29.176C31.6429 29.0027 31.2659 28.916 30.8585 28.916C30.3645 28.916 29.9182 29.0287 29.5195 29.254C29.1295 29.4707 28.8219 29.7827 28.5965 30.19C28.3799 30.5973 28.2715 31.061 28.2715 31.581C28.2715 32.1097 28.3799 32.5777 28.5965 32.985C28.8219 33.3837 29.1295 33.6957 29.5195 33.921C29.9182 34.1377 30.3645 34.246 30.8585 34.246C31.2659 34.246 31.6429 34.1637 31.9895 33.999C32.3362 33.8343 32.6222 33.583 32.8475 33.245L33.5365 33.713C33.2679 34.155 32.8995 34.493 32.4315 34.727C31.9635 34.9523 31.4392 35.065 30.8585 35.065ZM40.0068 28.981H37.4198V35H36.4968V28.981H33.9098V28.162H40.0068V28.981ZM43.6943 28.11C44.587 28.11 45.2717 28.3353 45.7483 28.786C46.225 29.228 46.4633 29.8867 46.4633 30.762V35H45.5793V33.934C45.3713 34.2893 45.0637 34.5667 44.6563 34.766C44.2577 34.9653 43.781 35.065 43.2263 35.065C42.4637 35.065 41.857 34.883 41.4063 34.519C40.9557 34.155 40.7303 33.674 40.7303 33.076C40.7303 32.4953 40.9383 32.0273 41.3543 31.672C41.779 31.3167 42.4507 31.139 43.3693 31.139H45.5403V30.723C45.5403 30.1337 45.3757 29.6873 45.0463 29.384C44.717 29.072 44.236 28.916 43.6033 28.916C43.17 28.916 42.754 28.9897 42.3553 29.137C41.9567 29.2757 41.6143 29.4707 41.3283 29.722L40.9123 29.033C41.259 28.7383 41.675 28.513 42.1603 28.357C42.6457 28.1923 43.157 28.11 43.6943 28.11ZM43.3693 34.337C43.8893 34.337 44.3357 34.22 44.7083 33.986C45.081 33.7433 45.3583 33.3967 45.5403 32.946V31.828H43.3953C42.2253 31.828 41.6403 32.2353 41.6403 33.05C41.6403 33.4487 41.792 33.765 42.0953 33.999C42.3987 34.2243 42.8233 34.337 43.3693 34.337ZM54.5104 28.162V35H53.5874V28.981H50.3114L50.2204 30.671C50.1511 32.0923 49.9864 33.1843 49.7264 33.947C49.4664 34.7097 49.0028 35.091 48.3354 35.091C48.1534 35.091 47.9324 35.0563 47.6724 34.987L47.7374 34.194C47.8934 34.2287 48.0018 34.246 48.0624 34.246C48.4178 34.246 48.6864 34.0813 48.8684 33.752C49.0504 33.4227 49.1718 33.0153 49.2324 32.53C49.2931 32.0447 49.3451 31.4033 49.3884 30.606L49.5054 28.162H54.5104ZM60.0723 30.58C60.9303 30.5887 61.5803 30.7793 62.0223 31.152C62.473 31.5247 62.6983 32.062 62.6983 32.764C62.6983 33.492 62.4556 34.051 61.9703 34.441C61.4936 34.831 60.8003 35.0217 59.8903 35.013L57.1343 35V28.162H58.0573V30.554L60.0723 30.58ZM59.8383 34.311C60.471 34.3197 60.9476 34.194 61.2683 33.934C61.5976 33.6653 61.7623 33.2753 61.7623 32.764C61.7623 32.2613 61.602 31.8887 61.2813 31.646C60.9606 31.4033 60.4796 31.2777 59.8383 31.269L58.0573 31.243V34.285L59.8383 34.311ZM73.8975 28.162V35H64.4595V28.162H65.3825V34.194H68.7365V28.162H69.6595V34.194H72.9745V28.162H73.8975ZM74.9505 34.194V36.495H74.0795V35H72.9225V34.194H74.9505ZM76.5327 28.162H77.4557V33.596L82.0187 28.162H82.8377V35H81.9147V29.566L77.3647 35H76.5327V28.162ZM87.9659 31.958H86.4059V35H85.4829V28.162H86.4059V31.165H87.9789L90.3839 28.162H91.3849L88.6939 31.477L91.5799 35H90.4879L87.9659 31.958ZM99.299 35.065C98.623 35.065 98.0163 34.9177 97.479 34.623C96.9503 34.3283 96.5343 33.9167 96.231 33.388C95.9276 32.8507 95.776 32.2483 95.776 31.581C95.776 30.9137 95.9276 30.3157 96.231 29.787C96.5343 29.2583 96.9503 28.8467 97.479 28.552C98.0163 28.2573 98.623 28.11 99.299 28.11C99.8883 28.11 100.413 28.227 100.872 28.461C101.34 28.6863 101.708 29.02 101.977 29.462L101.288 29.93C101.063 29.592 100.777 29.3407 100.43 29.176C100.083 29.0027 99.7063 28.916 99.299 28.916C98.805 28.916 98.3586 29.0287 97.96 29.254C97.57 29.4707 97.2623 29.7827 97.037 30.19C96.8203 30.5973 96.712 31.061 96.712 31.581C96.712 32.1097 96.8203 32.5777 97.037 32.985C97.2623 33.3837 97.57 33.6957 97.96 33.921C98.3586 34.1377 98.805 34.246 99.299 34.246C99.7063 34.246 100.083 34.1637 100.43 33.999C100.777 33.8343 101.063 33.583 101.288 33.245L101.977 33.713C101.708 34.155 101.34 34.493 100.872 34.727C100.404 34.9523 99.8796 35.065 99.299 35.065ZM114.811 28.162V35H113.966V29.592L111.197 34.168H110.781L108.012 29.579V35H107.167V28.162H108.103L111.002 33.089L113.953 28.162H114.811ZM123.417 31.867H117.697C117.749 32.5777 118.022 33.154 118.516 33.596C119.01 34.0293 119.634 34.246 120.388 34.246C120.813 34.246 121.203 34.1723 121.558 34.025C121.913 33.869 122.221 33.6437 122.481 33.349L123.001 33.947C122.698 34.311 122.316 34.5883 121.857 34.779C121.406 34.9697 120.908 35.065 120.362 35.065C119.66 35.065 119.036 34.9177 118.49 34.623C117.953 34.3197 117.532 33.9037 117.229 33.375C116.926 32.8463 116.774 32.2483 116.774 31.581C116.774 30.9137 116.917 30.3157 117.203 29.787C117.498 29.2583 117.896 28.8467 118.399 28.552C118.91 28.2573 119.482 28.11 120.115 28.11C120.748 28.11 121.315 28.2573 121.818 28.552C122.321 28.8467 122.715 29.2583 123.001 29.787C123.287 30.307 123.43 30.905 123.43 31.581L123.417 31.867ZM120.115 28.903C119.456 28.903 118.902 29.1153 118.451 29.54C118.009 29.956 117.758 30.502 117.697 31.178H122.546C122.485 30.502 122.23 29.956 121.779 29.54C121.337 29.1153 120.782 28.903 120.115 28.903ZM130.634 28.162V35H129.711V32.153C128.922 32.4997 128.147 32.673 127.384 32.673C126.561 32.673 125.919 32.4867 125.46 32.114C125.001 31.7327 124.771 31.165 124.771 30.411V28.162H125.694V30.359C125.694 30.8703 125.859 31.2603 126.188 31.529C126.517 31.789 126.972 31.919 127.553 31.919C128.194 31.919 128.914 31.75 129.711 31.412V28.162H130.634ZM138.065 28.981H135.478V35H134.555V28.981H131.968V28.162H138.065V28.981ZM141.904 35.065C141.245 35.065 140.651 34.9177 140.123 34.623C139.594 34.3197 139.178 33.9037 138.875 33.375C138.571 32.8463 138.42 32.2483 138.42 31.581C138.42 30.9137 138.571 30.3157 138.875 29.787C139.178 29.2583 139.594 28.8467 140.123 28.552C140.651 28.2573 141.245 28.11 141.904 28.11C142.562 28.11 143.156 28.2573 143.685 28.552C144.213 28.8467 144.625 29.2583 144.92 29.787C145.223 30.3157 145.375 30.9137 145.375 31.581C145.375 32.2483 145.223 32.8463 144.92 33.375C144.625 33.9037 144.213 34.3197 143.685 34.623C143.156 34.9177 142.562 35.065 141.904 35.065ZM141.904 34.246C142.389 34.246 142.822 34.1377 143.204 33.921C143.594 33.6957 143.897 33.3793 144.114 32.972C144.33 32.5647 144.439 32.101 144.439 31.581C144.439 31.061 144.33 30.5973 144.114 30.19C143.897 29.7827 143.594 29.4707 143.204 29.254C142.822 29.0287 142.389 28.916 141.904 28.916C141.418 28.916 140.981 29.0287 140.591 29.254C140.209 29.4707 139.906 29.7827 139.681 30.19C139.464 30.5973 139.356 31.061 139.356 31.581C139.356 32.101 139.464 32.5647 139.681 32.972C139.906 33.3793 140.209 33.6957 140.591 33.921C140.981 34.1377 141.418 34.246 141.904 34.246ZM147.347 28.162H148.27V33.596L152.833 28.162H153.652V35H152.729V29.566L148.179 35H147.347V28.162ZM150.454 27.174C149.865 27.174 149.397 27.0267 149.05 26.732C148.704 26.4373 148.526 26.0213 148.517 25.484H149.18C149.189 25.822 149.31 26.095 149.544 26.303C149.778 26.5023 150.082 26.602 150.454 26.602C150.827 26.602 151.13 26.5023 151.364 26.303C151.607 26.095 151.733 25.822 151.741 25.484H152.404C152.396 26.0213 152.214 26.4373 151.858 26.732C151.512 27.0267 151.044 27.174 150.454 27.174Z" fill="white"/>
</svg>
