<svg width="23" height="23" viewBox="0 0 23 23" fill="none" xmlns="http://www.w3.org/2000/svg">
<path d="M20.0291 5.22779L20.0808 5.42782L20.287 5.41475C20.8629 5.37824 21.5747 5.15319 22.1253 4.94757C22.177 4.92828 22.2275 4.90906 22.2766 4.89006C21.7644 5.54762 21.1765 6.14962 20.5177 6.62546L20.4141 6.7003V6.82812V7.45703C20.4141 13.5924 15.7445 20.5938 7.23242 20.5938C5.00521 20.5938 2.9091 20.0131 1.07005 19.0271C1.08787 19.0273 1.10555 19.0273 1.12305 19.0273C3.38179 19.0273 5.47295 18.1374 7.11607 16.8636L7.21289 16.7885V16.666V16.6211V16.3711H6.96289C5.15423 16.3711 3.62565 15.3884 2.95325 13.8545C3.11621 13.8835 3.28851 13.9062 3.45898 13.9062C3.88112 13.9062 4.43259 13.8222 4.82565 13.7182L4.81089 13.2314C2.89121 12.8463 1.37021 11.17 1.19309 9.17107C1.39179 9.28495 1.60459 9.40407 1.81878 9.50779C2.19688 9.6909 2.616 9.84579 3.04461 9.86308L3.30469 9.87357V9.61328V9.52344V9.38975L3.19351 9.31552C2.60615 8.92336 2.11533 8.29946 1.77081 7.60204C1.4263 6.90464 1.23828 6.15421 1.23828 5.52539C1.23828 4.82321 1.39281 4.03591 1.66842 3.41556C4.01634 6.14376 7.48434 8.02737 11.3061 8.24569L11.5703 8.26078V7.99609V7.95117V7.92164L11.5634 7.89292C11.4847 7.56439 11.4355 7.22088 11.4355 6.87305C11.4355 4.40603 13.4778 2.40625 15.9473 2.40625C17.231 2.40625 18.3159 2.93797 19.1341 3.80976L19.229 3.91088L19.3651 3.88389C20.2306 3.71219 21.0917 3.41485 21.8756 3.02495C21.4849 3.8015 20.864 4.46739 20.1312 4.90667L19.971 5.00274L20.0177 5.18364L20.0291 5.22779Z" fill="white" stroke="#6E9C9F" stroke-width="0.5"/>
<path d="M18.2226 11.5509C18.7312 10.2289 19 8.82196 19 7.48214V6.94112L18.6584 5.65183L18.6467 5.60795L18.5903 5.395L18.1236 4.9096C17.5433 4.30603 16.8381 4 16.0277 4C15.2261 4 14.4685 4.30446 13.8944 4.85728C13.3238 5.40679 13.0096 6.13286 13.0096 6.90179C13.0096 7.10188 13.0388 7.32237 13.0964 7.55714L13.1468 7.76228V7.97321V8.01786V9.90848L11.2133 9.80067C8.25084 9.63545 5.40023 8.61286 3 6.90402C3.22681 7.35 3.54517 7.7621 3.89646 8.05062L4.70992 8.58085L4.73278 9.49107V9.625V10.735C4.73278 11.1731 5.0436 11.5527 5.48131 11.6492L6.47045 11.8673V13.3274C6.47045 14.1319 7.13361 14.7865 7.95758 14.7954L8.71114 14.8036V16.5893V16.7679V17.643L8.00272 18.1792C7.60854 18.4775 7.19429 18.7492 6.76325 18.9933C6.89422 18.9978 7.02518 19 7.15638 19C11.6208 19 14.395 16.9754 15.9362 15.2769C16.9189 14.1938 17.6881 12.9402 18.2226 11.5509Z" fill="#6E9C9F"/>
</svg>
