<svg width="40" height="40" viewBox="0 0 40 40" fill="none" xmlns="http://www.w3.org/2000/svg">
<rect width="40" height="40" rx="20" fill="#FF8038"/>
<path d="M23.3013 25H15.8159V23.4253L18.5039 20.708C19.2998 19.8926 19.8198 19.3286 20.064 19.0161C20.3081 18.6987 20.4839 18.4058 20.5913 18.1372C20.6987 17.8687 20.7524 17.5903 20.7524 17.3022C20.7524 16.8726 20.6328 16.5527 20.3936 16.3428C20.1592 16.1328 19.8442 16.0278 19.4487 16.0278C19.0337 16.0278 18.6309 16.123 18.2402 16.3135C17.8496 16.5039 17.4419 16.7749 17.0171 17.1265L15.7866 15.6689C16.314 15.2197 16.751 14.9023 17.0977 14.7168C17.4443 14.5312 17.8228 14.3896 18.2329 14.292C18.6431 14.1895 19.1021 14.1382 19.6099 14.1382C20.2788 14.1382 20.8696 14.2603 21.3823 14.5044C21.895 14.7485 22.293 15.0903 22.5762 15.5298C22.8594 15.9692 23.001 16.4722 23.001 17.0386C23.001 17.5317 22.9131 17.9956 22.7373 18.4302C22.5664 18.8599 22.2979 19.3018 21.9316 19.7559C21.5703 20.21 20.9307 20.8569 20.0127 21.6968L18.6357 22.9932V23.0957H23.3013V25Z" fill="white"/>
</svg>
