<svg width="40" height="40" viewBox="0 0 40 40" fill="none" xmlns="http://www.w3.org/2000/svg">
<rect width="40" height="40" rx="20" fill="#903EF9"/>
<path d="M22.8838 16.687C22.8838 17.356 22.6812 17.9248 22.2759 18.3936C21.8706 18.8623 21.3018 19.1846 20.5693 19.3604V19.4043C21.4336 19.5117 22.0879 19.7754 22.5322 20.1953C22.9766 20.6104 23.1987 21.1719 23.1987 21.8799C23.1987 22.9102 22.8252 23.7134 22.0781 24.2896C21.3311 24.8608 20.2642 25.1465 18.8774 25.1465C17.7153 25.1465 16.6851 24.9536 15.7866 24.5679V22.6416C16.2017 22.8516 16.6582 23.0225 17.1562 23.1543C17.6543 23.2861 18.1475 23.3521 18.6357 23.3521C19.3828 23.3521 19.9346 23.2251 20.291 22.9712C20.6475 22.7173 20.8257 22.3096 20.8257 21.748C20.8257 21.2451 20.6206 20.8887 20.2104 20.6787C19.8003 20.4688 19.146 20.3638 18.2476 20.3638H17.4346V18.6279H18.2622C19.0923 18.6279 19.6978 18.5205 20.0786 18.3057C20.4644 18.0859 20.6572 17.7124 20.6572 17.1851C20.6572 16.3745 20.1494 15.9692 19.1338 15.9692C18.7822 15.9692 18.4233 16.0278 18.0571 16.145C17.6958 16.2622 17.293 16.4648 16.8486 16.7529L15.8013 15.1929C16.7778 14.4897 17.9424 14.1382 19.2949 14.1382C20.4033 14.1382 21.2773 14.3628 21.917 14.812C22.5615 15.2612 22.8838 15.8862 22.8838 16.687Z" fill="white"/>
</svg>
