<svg width="16" height="20" viewBox="0 0 16 20" fill="none" xmlns="http://www.w3.org/2000/svg">
<path d="M15.9855 14.5978C15.9705 14.6678 15.5805 16.0378 14.6085 17.4288C13.7975 18.6538 12.9465 19.8508 11.5965 19.8728C10.2855 19.9028 9.84347 19.0928 8.33947 19.0928C6.82147 19.0928 6.35147 19.8508 5.09347 19.9028C3.80747 19.9508 2.82447 18.5958 1.98347 17.3828C0.303469 14.9028 -1.00553 10.3978 0.749469 7.33177C1.59947 5.82877 3.14947 4.86077 4.80647 4.83477C6.09447 4.80777 7.28947 5.71177 8.08047 5.71177C8.85647 5.71177 10.3335 4.63077 11.8565 4.79177C12.4935 4.81177 14.3065 5.04677 15.4765 6.76777C15.3825 6.82477 13.3165 8.04977 13.3385 10.5688C13.3645 13.5888 15.9555 14.5858 15.9865 14.5968L15.9855 14.5978ZM7.92447 4.56477C7.78047 3.42977 8.33747 2.22277 8.96247 1.48677C9.66747 0.651773 10.8925 0.0117734 11.8725 -0.0322266C12.0005 1.14677 11.5375 2.30877 10.8605 3.16277C10.1545 4.00377 9.02447 4.64777 7.92447 4.56477V4.56477Z" fill="#267DF4"/>
</svg>
