<svg width="13" height="11" viewBox="0 0 13 11" fill="none" xmlns="http://www.w3.org/2000/svg">
<path d="M8.521 0.357004L12.607 4.443C13.097 4.933 13.162 5.687 12.801 6.247C12.6945 6.4319 12.55 6.5921 12.377 6.717L8.521 10.572C8.24739 10.8288 7.8846 10.9691 7.50938 10.9632C7.13417 10.9574 6.77596 10.8057 6.51054 10.5404C6.24513 10.2752 6.09333 9.91703 6.08725 9.54181C6.08118 9.1666 6.22131 8.80374 6.478 8.53L8.008 7H1.5C1.30302 7 1.10796 6.96121 0.925975 6.88582C0.743987 6.81044 0.578628 6.69995 0.43934 6.56066C0.300052 6.42138 0.189563 6.25602 0.114181 6.07403C0.0387986 5.89204 0 5.69699 0 5.5C0 5.30302 0.0387986 5.10797 0.114181 4.92598C0.189563 4.74399 0.300052 4.57863 0.43934 4.43934C0.578628 4.30006 0.743987 4.18957 0.925975 4.11418C1.10796 4.0388 1.30302 4 1.5 4H8.078L6.478 2.4C6.22131 2.12627 6.08118 1.76341 6.08725 1.3882C6.09333 1.01298 6.24513 0.654849 6.51054 0.389564C6.77596 0.124279 7.13417 -0.0273485 7.50938 -0.0332385C7.8846 -0.0391286 8.24739 0.101181 8.521 0.358004V0.357004Z" fill="#267DF4"/>
</svg>
