<svg width="24" height="11" viewBox="0 0 24 11" fill="none" xmlns="http://www.w3.org/2000/svg">
<path d="M18.521 0.390421L22.607 4.47642C23.097 4.96642 23.162 5.72042 22.801 6.28042C22.6945 6.46532 22.55 6.62552 22.377 6.75042L18.521 10.6054C18.2474 10.8622 17.8846 11.0026 17.5094 10.9967C17.1341 10.9908 16.7759 10.8391 16.5105 10.5739C16.2451 10.3086 16.0933 9.95044 16.0872 9.57523C16.0812 9.20002 16.2213 8.83716 16.478 8.56342L18.008 7.03342H1.5C1.30302 7.03342 1.10796 6.99462 0.925975 6.91924C0.743987 6.84386 0.578628 6.73337 0.43934 6.59408C0.300052 6.45479 0.189563 6.28943 0.114181 6.10745C0.0387986 5.92546 0 5.53342 0 5.53342C0 5.53342 0.0387986 5.14138 0.114181 4.9594C0.189563 4.77741 0.300052 4.61205 0.43934 4.47276C0.578628 4.33347 0.743987 4.22298 0.925975 4.1476C1.10796 4.07222 1.30302 4.03342 1.5 4.03342H18.078L16.478 2.43342C16.2213 2.15968 16.0812 1.79683 16.0872 1.42161C16.0933 1.0464 16.2451 0.688266 16.5105 0.422981C16.7759 0.157696 17.1341 0.00606826 17.5094 0.000178216C17.8846 -0.00571183 18.2474 0.134597 18.521 0.391421V0.390421Z" fill="white"/>
</svg>
